<svg fill="none" height="647" viewBox="0 0 323 650" width="323" xmlns="http://www.w3.org/2000/svg" class="mcm7lsx433154 mcm7lsx4283154 entered"><rect fill="var(--mc1lhmj7o23154, #F4F4F2)" height="646" rx="48.5" width="310" x="6.5" y="0.5"/><mask fill="black" height="534" id="path-2-outside-1_1864_52867" maskUnits="userSpaceOnUse" width="283" x="20" y="99"><rect fill="white" height="534" width="283" x="20" y="99"/><path d="M21 99H302V592C302 614.091 284.091 632 262 632H61C38.9086 632 21 614.091 21 592V99Z"/></mask><path d="M21 99H302V592C302 614.091 284.091 632 262 632H61C38.9086 632 21 614.091 21 592V99Z" fill="var(--mc1lhmj7o33154, #FFFFFF)"/><path d="M21 99H302H21ZM303 592C303 614.644 284.644 633 262 633H61C38.3563 633 20 614.644 20 592H22C22 613.539 39.4609 631 61 631H262C283.539 631 301 613.539 301 592H303ZM61 633C38.3563 633 20 614.644 20 592V99H22V592C22 613.539 39.4609 631 61 631V633ZM303 99V592C303 614.644 284.644 633 262 633V631C283.539 631 301 613.539 301 592V99H303Z" fill="var(--mc1lhmj7o43154, #D9D8D7)" mask="url(#path-2-outside-1_1864_52867)"/><path d="M317.471 263.471V263.971H317.971H319.687C320.433 263.971 321.118 263.682 321.624 263.212L321.624 263.211C322.158 262.713 322.5 262.005 322.5 261.218V201.259C322.5 200.497 322.182 199.805 321.671 199.306C321.165 198.813 320.462 198.502 319.687 198.502H317.971H317.471V199.002V263.466V263.471Z" fill="var(--mc1lhmj7o53154, #E5E5E3)" stroke="var(--mc1lhmj7o63154, #D9D8D7)" stroke-miterlimit="10"/><path d="M5.5293 225.864L5.5293 225.364L5.0293 225.364L3.3135 225.364C2.62781 225.364 1.97897 225.517 1.47836 225.789L1.47788 225.789C0.968475 226.067 0.500011 226.538 0.500011 227.178L0.500008 262.154C0.500008 262.774 0.937291 263.238 1.43135 263.519L1.67673 263.088L1.43135 263.519C1.93472 263.805 2.60148 263.971 3.31349 263.971L5.0293 263.971L5.5293 263.971L5.5293 263.471L5.5293 225.867L5.5293 225.864Z" fill="var(--mc1lhmj7o53154, #E5E5E3)" stroke="var(--mc1lhmj7o63154, #D9D8D7)" stroke-miterlimit="10"/><path d="M5.5293 171.469L5.5293 170.969L5.0293 170.969L3.3135 170.969C2.62781 170.969 1.97897 171.122 1.47836 171.394L1.47788 171.394C0.968475 171.671 0.500011 172.142 0.500011 172.782L0.500008 207.759C0.500008 208.378 0.937291 208.842 1.43135 209.123L1.67673 208.692L1.43135 209.123C1.93472 209.41 2.60148 209.575 3.31349 209.575L5.0293 209.575L5.5293 209.575L5.5293 209.075L5.5293 171.471L5.5293 171.469Z" fill="var(--mc1lhmj7o53154, #E5E5E3)" stroke="var(--mc1lhmj7o63154, #D9D8D7)" stroke-miterlimit="10"/><path d="M5.5293 107L5.5293 106.5L5.0293 106.5L3.3135 106.5C2.65963 106.5 2.04355 106.583 1.56878 106.73L1.56842 106.731C1.32068 106.808 1.08298 106.911 0.896262 107.049C0.719784 107.179 0.50001 107.411 0.50001 107.751L0.500008 127.737C0.500008 128.065 0.704536 128.293 0.876979 128.425C1.05663 128.563 1.28542 128.666 1.52403 128.744C2.00167 128.899 2.63466 128.989 3.31349 128.989L5.0293 128.989L5.5293 128.989L5.5293 128.489L5.5293 107.001L5.5293 107Z" fill="var(--mc1lhmj7o53154, #E5E5E3)" stroke="var(--mc1lhmj7o63154, #D9D8D7)" stroke-miterlimit="10"/><path d="M20.5 99V99.5H21H302H302.5V99V57C302.5 33.5299 283.553 14.5 260.177 14.5H217.472C214.435 14.5 211.972 16.9624 211.972 20V30.75C211.972 33.3753 209.853 35.5 207.244 35.5H115.756C113.147 35.5 111.028 33.3753 111.028 30.75V20C111.028 16.9624 108.565 14.5 105.528 14.5H62.8233C39.4468 14.5 20.5 33.5299 20.5 57V99Z" fill="var(--mc1lhmj7o73154, #fff)" stroke="var(--mc1lhmj7oc3154, #D9D8D7)"/><g clip-path="url(#clip0_1864_52867)"><g clip-path="url(#clip1_1864_52867)"><path clip-rule="evenodd" d="M45.2803 67.213C45.5732 67.497 45.5732 67.9575 45.2803 68.2415L38.3107 75L45.2803 81.7585C45.5732 82.0425 45.5732 82.503 45.2803 82.787C44.9874 83.071 44.5126 83.071 44.2197 82.787L36.7197 75.5143C36.4268 75.2302 36.4268 74.7698 36.7197 74.4857L44.2197 67.213C44.5126 66.929 44.9874 66.929 45.2803 67.213Z" fill="var(--mc1lhmj7o83154, #C4C4C2)" fill-rule="evenodd"/></g></g><g clip-path="url(#clip2_1864_52867)"><path clip-rule="evenodd" d="M246.307 66.1926C246.035 66.0352 245.719 65.9717 245.407 66.0117C244.189 66.1677 243.07 66.7621 242.259 67.6835C241.448 68.605 241 69.7906 241 71.0182C241 74.4612 242.368 77.7632 244.802 80.1977C247.237 82.6323 250.539 84 253.982 84C255.21 83.9997 256.395 83.5521 257.317 82.741C258.238 81.9299 258.832 80.8109 258.988 79.5933C259.028 79.2815 258.965 78.9652 258.807 78.6931C258.651 78.4224 258.41 78.2103 258.122 78.0892L253.91 76.2804L253.908 76.2792C253.686 76.183 253.445 76.1442 253.204 76.1663C252.964 76.1884 252.734 76.2708 252.534 76.4057L251.097 77.3655L250.282 77.9101L250.279 77.912C248.894 77.2447 247.775 76.1289 247.105 74.7457L248.479 72.6549L248.607 72.4602L248.612 72.4528C248.74 72.2535 248.816 72.026 248.835 71.7902C248.854 71.5551 248.815 71.3189 248.721 71.1025L246.911 66.8785C246.79 66.5901 246.578 66.3492 246.307 66.1926ZM245.584 67.4432C244.716 67.556 243.92 67.98 243.342 68.6365C242.762 69.2947 242.443 70.1414 242.442 71.0182C242.442 74.0786 243.658 77.0138 245.822 79.1778C247.986 81.3418 250.921 82.5575 253.982 82.5576C254.859 82.5573 255.705 82.2376 256.363 81.6583C257.02 81.0804 257.444 80.2836 257.557 79.4164L257.556 79.4159L253.337 77.604L251.8 78.6306L251.086 79.1075L251.084 79.1087C250.969 79.1863 250.843 79.2464 250.712 79.2878C250.607 79.3209 250.498 79.3419 250.388 79.3503C250.138 79.3693 249.888 79.3229 249.661 79.2157L249.657 79.2138C247.976 78.4049 246.618 77.0506 245.805 75.3713L245.804 75.3683C245.697 75.1458 245.649 74.8996 245.665 74.6534C245.673 74.535 245.695 74.4186 245.731 74.3065C245.769 74.1855 245.824 74.0695 245.894 73.962L245.897 73.9576L247.397 71.6751L247.396 71.6719L245.584 67.4432Z" fill="var(--mc1lhmj7o83154, #C4C4C2)" fill-rule="evenodd"/><path d="M281.7 69.4C282.638 69.4 283.4 68.6389 283.4 67.7C283.4 66.7611 282.638 66 281.7 66C280.761 66 280 66.7611 280 67.7C280 68.6389 280.761 69.4 281.7 69.4Z" fill="var(--mc1lhmj7o83154, #C4C4C2)"/><path d="M281.7 76.2C282.638 76.2 283.4 75.4389 283.4 74.5C283.4 73.5612 282.638 72.8 281.7 72.8C280.761 72.8 280 73.5612 280 74.5C280 75.4389 280.761 76.2 281.7 76.2Z" fill="var(--mc1lhmj7o83154, #C4C4C2)"/><path d="M281.7 82.9996C282.638 82.9996 283.4 82.2385 283.4 81.2996C283.4 80.3607 282.638 79.5996 281.7 79.5996C280.761 79.5996 280 80.3607 280 81.2996C280 82.2385 280.761 82.9996 281.7 82.9996Z" fill="var(--mc1lhmj7o83154, #C4C4C2)"/></g><rect height="646" rx="48.5" stroke="var(--mc1lhmj7ob3154, #D9D8D7)" stroke-miterlimit="10" width="310" x="6.5" y="0.5"/><g clip-path="url(#clip3_1864_52867)"><path d="M21 552H302V592C302 614.091 284.091 632 262 632H61C38.9086 632 21 614.091 21 592V552Z" fill="var(--mc1lhmj7o93154, #fff)"/><path d="M47.75 572.25C47.75 571.836 47.4142 571.5 47 571.5C46.5858 571.5 46.25 571.836 46.25 572.25V579.75H38.75C38.3358 579.75 38 580.086 38 580.5C38 580.914 38.3358 581.25 38.75 581.25H46.25V588.75C46.25 589.164 46.5858 589.5 47 589.5C47.4142 589.5 47.75 589.164 47.75 588.75V581.25H55.25C55.6642 581.25 56 580.914 56 580.5C56 580.086 55.6642 579.75 55.25 579.75H47.75V572.25Z" fill="var(--mc1lhmj7oa3154, #C4C4C2)"/><g clip-path="url(#clip4_1864_52867)"/><rect height="30" rx="15" stroke="var(--mc1lhmj7oa3154, #C4C4C2)" width="188" x="67.5" y="565.5"/><path clip-rule="evenodd" d="M276 571.929C274.446 571.929 273.186 573.208 273.186 574.786V580.5C273.186 582.078 274.446 583.357 276 583.357C277.554 583.357 278.814 582.078 278.814 580.5V574.786C278.814 573.208 277.554 571.929 276 571.929ZM271.779 574.786C271.779 572.419 273.669 570.5 276 570.5C278.331 570.5 280.221 572.419 280.221 574.786V580.5C280.221 582.867 278.331 584.786 276 584.786C273.669 584.786 271.779 582.867 271.779 580.5V574.786Z" fill="var(--mc1lhmj7oa3154, #C4C4C2)" fill-rule="evenodd"/><path clip-rule="evenodd" d="M276 586.214C276.389 586.214 276.704 586.534 276.704 586.929V589.786C276.704 590.18 276.389 590.5 276 590.5C275.611 590.5 275.296 590.18 275.296 589.786V586.929C275.296 586.534 275.611 586.214 276 586.214Z" fill="var(--mc1lhmj7oa3154, #C4C4C2)" fill-rule="evenodd"/><path clip-rule="evenodd" d="M269.621 580.505C270.007 580.459 270.357 580.739 270.402 581.13C270.564 582.522 271.224 583.805 272.256 584.736C273.287 585.667 274.62 586.181 276 586.181C277.38 586.181 278.713 585.667 279.744 584.736C280.776 583.805 281.436 582.522 281.598 581.13C281.643 580.739 281.993 580.459 282.379 580.505C282.765 580.551 283.041 580.907 282.995 581.298C282.792 583.037 281.968 584.64 280.679 585.804C279.39 586.967 277.725 587.609 276 587.609C274.275 587.609 272.61 586.967 271.321 585.804C270.032 584.64 269.208 583.037 269.005 581.298C268.959 580.907 269.235 580.551 269.621 580.505Z" fill="var(--mc1lhmj7oa3154, #C4C4C2)" fill-rule="evenodd"/></g><defs><clipPath id="clip0_1864_52867"><rect fill="white" height="24" transform="translate(29 63)" width="122"/></clipPath><clipPath id="clip1_1864_52867"><rect fill="white" height="24" transform="translate(29 63)" width="24"/></clipPath><clipPath id="clip2_1864_52867"><rect fill="white" height="24" transform="translate(238 63)" width="56"/></clipPath><clipPath id="clip3_1864_52867"><path d="M21 552H302V592C302 614.091 284.091 632 262 632H61C38.9086 632 21 614.091 21 592V552Z" fill="white"/></clipPath><clipPath id="clip4_1864_52867"><rect fill="white" height="31" rx="15.5" width="189" x="67" y="565"/></clipPath></defs></svg>