<svg xmlns="http://www.w3.org/2000/svg" viewBox="0 0 200 200" width="200" height="200">
  <!-- Sun -->
  <circle cx="80" cy="70" r="28" fill="#FFD700" opacity="0.9"/>
  <!-- Sun rays -->
  <line x1="80" y1="32" x2="80" y2="20" stroke="#FFD700" stroke-width="3" stroke-linecap="round"/>
  <line x1="80" y1="108" x2="80" y2="120" stroke="#FFD700" stroke-width="3" stroke-linecap="round"/>
  <line x1="42" y1="70" x2="30" y2="70" stroke="#FFD700" stroke-width="3" stroke-linecap="round"/>
  <line x1="118" y1="70" x2="130" y2="70" stroke="#FFD700" stroke-width="3" stroke-linecap="round"/>
  <line x1="53" y1="43" x2="44" y2="34" stroke="#FFD700" stroke-width="3" stroke-linecap="round"/>
  <line x1="107" y1="97" x2="116" y2="106" stroke="#FFD700" stroke-width="3" stroke-linecap="round"/>
  <line x1="107" y1="43" x2="116" y2="34" stroke="#FFD700" stroke-width="3" stroke-linecap="round"/>
  <line x1="53" y1="97" x2="44" y2="106" stroke="#FFD700" stroke-width="3" stroke-linecap="round"/>
  <!-- Cloud shadow -->
  <ellipse cx="122" cy="112" rx="56" ry="30" fill="#B0BEC5" opacity="0.4"/>
  <!-- Main cloud -->
  <ellipse cx="118" cy="108" rx="54" ry="28" fill="#ECEFF1"/>
  <circle cx="90" cy="100" r="24" fill="#ECEFF1"/>
  <circle cx="130" cy="96" r="20" fill="#ECEFF1"/>
  <circle cx="155" cy="104" r="16" fill="#ECEFF1"/>
  <!-- Rain drops -->
  <line x1="100" y1="145" x2="94" y2="165" stroke="#5B9BD5" stroke-width="2.5" stroke-linecap="round"/>
  <line x1="120" y1="148" x2="114" y2="168" stroke="#5B9BD5" stroke-width="2.5" stroke-linecap="round"/>
  <line x1="140" y1="145" x2="134" y2="165" stroke="#5B9BD5" stroke-width="2.5" stroke-linecap="round"/>
  <line x1="110" y1="158" x2="104" y2="178" stroke="#5B9BD5" stroke-width="2.5" stroke-linecap="round" opacity="0.7"/>
  <line x1="130" y1="160" x2="124" y2="180" stroke="#5B9BD5" stroke-width="2.5" stroke-linecap="round" opacity="0.7"/>
</svg>
