<?xml version="1.0" encoding="UTF-8"?>
<svg version="1.1" xmlns="http://www.w3.org/2000/svg" width="189" height="206">
<path d="M0 0 C2.98111892 1.49055946 5.25651944 2.81345036 7.87890625 4.765625 C8.62640137 5.31935791 9.37389648 5.87309082 10.14404297 6.44360352 C10.94213379 7.03971436 11.74022461 7.6358252 12.5625 8.25 C14.26413883 9.51457066 15.9659675 10.77888591 17.66796875 12.04296875 C18.54372559 12.69442871 19.41948242 13.34588867 20.32177734 14.01708984 C22.97192383 15.97921288 25.6338689 17.92402321 28.30078125 19.86328125 C29.15148193 20.48364258 30.00218262 21.10400391 30.87866211 21.74316406 C32.50610025 22.92924416 34.13572124 24.11233667 35.76782227 25.29199219 C39.85601572 28.28147535 43.53942961 31.29815478 47 35 C37.31056331 42.46868231 27.565804 49.84893739 17.6862793 57.06494141 C12.98416917 60.50665528 8.38257787 64.04153051 3.84765625 67.70166016 C2 69 2 69 0 69 C-0.495 60.09 -0.495 60.09 -1 51 C-8.33033949 54.2355681 -8.33033949 54.2355681 -12.4375 59.5625 C-12.91058594 60.32691406 -13.38367188 61.09132812 -13.87109375 61.87890625 C-17.06477321 67.87948738 -17.13816338 75.91716972 -15.328125 82.41015625 C-14.46378646 84.48088079 -14.46378646 84.48088079 -13 87 C-7.7591227 85.40405504 -4.00973064 82.06248071 0.1875 78.6875 C6.29754666 73.8514419 12.46636438 69.14690545 18.8125 64.625 C26.60763662 59.0616193 34.23920589 53.30174373 41.83325195 47.46728516 C43.47107609 46.21010334 45.11163401 44.95647209 46.75537109 43.70703125 C48.19799251 42.60992347 49.63385919 41.50384488 51.06103516 40.38671875 C52.65001934 39.1784417 54.3189704 38.07654246 56 37 C60.40080459 38.46693486 61.83730978 41.56738103 64.375 45.3125 C64.86597168 46.03219971 65.35694336 46.75189941 65.86279297 47.4934082 C75.79090671 62.41204496 78.39028355 78.30026054 75.31640625 95.91796875 C71.21980611 110.14558001 62.64113563 121.20333476 50 128.9375 C42.61156524 132.96410198 36.43068463 135 28 135 C28 141.6 28 148.2 28 155 C24.31709806 153.52683923 22.36826153 152.74283956 19.4609375 150.453125 C18.80714111 149.94450928 18.15334473 149.43589355 17.47973633 148.91186523 C16.78517334 148.36344971 16.09061035 147.81503418 15.375 147.25 C13.86703306 146.07794902 12.35787148 144.90743382 10.84765625 143.73828125 C10.0602002 143.12807129 9.27274414 142.51786133 8.46142578 141.88916016 C4.28542436 138.68405214 0.0516762 135.55831513 -4.1875 132.4375 C-4.97656738 131.85452148 -5.76563477 131.27154297 -6.57861328 130.67089844 C-9.8531598 128.26221421 -13.11765891 125.90061541 -16.55078125 123.72265625 C-17.35902344 123.15417969 -18.16726562 122.58570313 -19 122 C-19 121.34 -19 120.68 -19 120 C-17.6809082 118.83349609 -17.6809082 118.83349609 -15.80078125 117.5234375 C-14.74358887 116.77598267 -14.74358887 116.77598267 -13.66503906 116.01342773 C-12.88870117 115.47274658 -12.11236328 114.93206543 -11.3125 114.375 C-3.09325133 108.55677729 4.9407526 102.52916388 12.91674805 96.38232422 C25.12834493 87 25.12834493 87 28 87 C28 92.61 28 98.22 28 104 C34.87198961 100.71785571 38.74222501 97.95185913 42 91 C44.07338717 84.77983848 44.1418298 76.75623167 41.5 70.6875 C41.005 69.800625 40.51 68.91375 40 68 C33.97429942 71.90115348 28.245657 76.03869522 22.625 80.5 C14.03121624 87.25052374 5.27492632 93.75411654 -3.54736328 100.20166016 C-6.12008579 102.08805016 -8.68402382 103.98588927 -11.24609375 105.88671875 C-12.53398804 106.84094727 -12.53398804 106.84094727 -13.84790039 107.81445312 C-15.49015409 109.03166599 -17.13132949 110.25033551 -18.77124023 111.47070312 C-22.42199013 114.17126869 -26.03670687 116.76571324 -30 119 C-44.18225245 100.97247974 -50.812871 86.24100618 -49 63 C-46.53602663 49.00015133 -38.59040832 36.65496059 -27.1875 28.25 C-18.52984389 22.51740417 -10.21948888 20.42597519 0 19 C0 12.73 0 6.46 0 0 Z " fill="#FC0C83" transform="translate(80,25)"/>
<path d="" fill="#FEC1DF" transform="translate(0,0)"/>
</svg>
