<?xml version="1.0" encoding="UTF-8"?>
<svg version="1.1" xmlns="http://www.w3.org/2000/svg" width="512" height="512">
<path d="M0 0 C5.42499881 3.07905338 10.09846237 7.01725114 14.875 11 C29.11021638 22.68136266 29.11021638 22.68136266 46.875 25 C52.99986154 23.96170629 59.03520009 22.52308389 65.08789062 21.1328125 C84.87334878 16.77066425 84.87334878 16.77066425 93.10546875 21.6328125 C102.38940764 28.80583372 105.77243648 41.66594646 109.375 52.3125 C112.98123058 62.50352503 117.34087955 68.76767194 126.875 74 C131.15788794 75.77427046 135.52359549 77.21335721 139.9375 78.625 C163.1877553 86.19423508 163.1877553 86.19423508 168.875 97 C171.94360108 106.20580325 169.2761719 116.59952373 167.375 125.8125 C164.88746407 138.06865677 162.88247293 148.09994759 169.9140625 159.2265625 C172.47017308 162.89072265 175.16353148 166.4500378 177.875 170 C195.11832932 192.61420238 195.11832932 192.61420238 194.40625 202.63671875 C192.2099292 212.40711643 185.94106356 219.72621151 179.49609375 227.02734375 C170.52854826 237.19768968 165.03474787 246.14441392 165.875 260 C166.52994887 264.37354284 167.43682878 268.6793412 168.375 273 C173.0550545 294.55354827 173.0550545 294.55354827 168.03125 303.2734375 C166.44667418 305.63959463 164.74985001 307.85731428 162.875 310 C163.36887207 310.61053223 163.86274414 311.22106445 164.37158203 311.85009766 C166.54434802 316.40239172 166.10840803 320.42852018 165.9296875 325.3984375 C165.89203845 327.49715674 165.85908949 329.59596444 165.83032227 331.69482422 C165.81429962 332.78696228 165.79827698 333.87910034 165.7817688 335.0043335 C165.60048503 354.23852397 165.75230495 368.71950775 177.91015625 384.34570312 C181.30991206 388.938415 184.07099706 393.92457535 186.92086792 398.86880493 C188.58153096 401.73754014 190.27854255 404.58452427 191.97265625 407.43359375 C192.62379395 408.53171387 193.27493164 409.62983398 193.94580078 410.76123047 C195.80418021 413.88110664 197.68069814 416.98950281 199.55859375 420.09765625 C200.66489199 421.96044512 201.77040763 423.82369908 202.875 425.6875 C203.64082397 426.93297607 203.64082397 426.93297607 204.42211914 428.20361328 C207.48403359 433.42419086 208.64492371 436.93273798 207.875 443 C205.34046343 446.21954645 203.76202695 447.70432435 199.875 449 C196.91287101 449.21200128 193.96594668 449.37584278 191 449.5 C190.12029541 449.54060547 189.24059082 449.58121094 188.33422852 449.62304688 C185.51465196 449.75273991 182.69486674 449.87679026 179.875 450 C152.9624884 449.94961676 152.9624884 449.94961676 129.875 462 C127.15878886 465.41609377 124.86081043 469.04363014 122.5625 472.75 C121.91877441 473.76118896 121.27504883 474.77237793 120.61181641 475.81420898 C116.12661447 482.89045274 111.7261623 490.02635214 107.46362305 497.23925781 C101.1279854 507.85141921 101.1279854 507.85141921 96.8828125 510.015625 C93.98483091 510.3763696 91.74282286 510.49230251 89.1496582 509.02124023 C83.98403999 504.66785001 81.07749974 499.7356238 77.9375 493.8125 C76.80229786 491.73803837 75.66415197 489.66518559 74.5234375 487.59375 C73.93014648 486.51222656 73.33685547 485.43070312 72.72558594 484.31640625 C69.61815695 478.74763113 66.3368346 473.28423787 63.0625 467.8125 C56.67300339 457.0999896 50.43354149 446.31062282 44.27807617 435.4621582 C40.92296889 429.55422348 37.51737661 423.697399 33.92822266 417.92797852 C32.875 416 32.875 416 32.875 414 C21.77433753 413.57261695 10.67854531 413.27799636 -0.42980385 413.1476593 C-5.5902988 413.08304389 -10.74174601 412.97469423 -15.8984375 412.76220703 C-37.48260966 410.89516249 -37.48260966 410.89516249 -57.29360962 417.24713135 C-62.2350892 422.81611301 -64.85994595 429.10703628 -67.14697266 436.12463379 C-68.41421034 439.8502683 -70.14777245 442.79536431 -72.24609375 446.1171875 C-73.35208095 448.03615962 -74.45756367 449.9554226 -75.5625 451.875 C-76.47745239 453.46127197 -76.47745239 453.46127197 -77.41088867 455.07958984 C-80.63373073 460.66815703 -83.84865955 466.26114474 -87.0546875 471.859375 C-98.23282321 491.35687034 -98.23282321 491.35687034 -103.8125 500.4375 C-104.19833252 501.07574707 -104.58416504 501.71399414 -104.98168945 502.37158203 C-106.99395767 505.59390919 -108.80448728 508.08938752 -112.125 510 C-117.04583851 510.88736432 -117.04583851 510.88736432 -120.125 510 C-126.29105888 504.83210209 -130.3225217 497.22224831 -134.4375 490.4375 C-135.7565515 488.30260579 -137.07686423 486.16849032 -138.3984375 484.03515625 C-139.03491211 483.00406738 -139.67138672 481.97297852 -140.32714844 480.91064453 C-148.16059548 468.22862992 -154.42808445 458.14523973 -169.125 453 C-172.41332847 452.25167508 -175.52784413 451.85228203 -178.89599609 451.75048828 C-179.81399994 451.72020538 -180.73200378 451.68992249 -181.67782593 451.65872192 C-182.65812775 451.62954681 -183.63842957 451.6003717 -184.6484375 451.5703125 C-186.74220765 451.49666437 -188.83595715 451.42242733 -190.9296875 451.34765625 C-194.2166575 451.2342278 -197.50357793 451.12489224 -200.79101562 451.02587891 C-203.9732125 450.92804592 -207.15442008 450.81297221 -210.3359375 450.6953125 C-211.31219086 450.67018585 -212.28844421 450.6450592 -213.29428101 450.61917114 C-218.93067004 450.39606395 -223.16399802 449.76413928 -228.125 447 C-230.66469564 443.19045653 -230.96858971 440.39643439 -230.125 436 C-228.3414531 431.81760506 -226.06879727 427.96804596 -223.75 424.0625 C-223.10804688 422.95076416 -222.46609375 421.83902832 -221.8046875 420.69360352 C-219.92802394 417.45237097 -218.02953948 414.22490912 -216.125 411 C-215.23599887 409.47713434 -214.34784337 407.95377437 -213.4609375 406.4296875 C-211.91174968 403.77607458 -210.35102626 401.1297626 -208.78125 398.48828125 C-204.73005834 391.66380125 -200.75641905 384.79356481 -196.76953125 377.93139648 C-195.90908203 376.45328491 -195.90908203 376.45328491 -195.03125 374.9453125 C-194.51884766 374.06375488 -194.00644531 373.18219727 -193.47851562 372.27392578 C-192.41296019 370.48377728 -191.28059376 368.73339063 -190.125 367 C-189.81772984 364.63197078 -189.81772984 364.63197078 -189.85375977 361.96533203 C-189.84357315 360.94061798 -189.83338654 359.91590393 -189.82289124 358.86013794 C-189.82075119 357.75387054 -189.81861115 356.64760315 -189.81640625 355.5078125 C-189.79124671 353.17057042 -189.76584867 350.83333089 -189.74023438 348.49609375 C-189.71147967 344.8071356 -189.68746552 341.11822186 -189.66870117 337.42919922 C-189.64705923 333.87183546 -189.60761903 330.31499543 -189.56640625 326.7578125 C-189.56629044 325.65559357 -189.56617462 324.55337463 -189.5660553 323.41775513 C-189.55271652 322.38673676 -189.53937775 321.35571838 -189.52563477 320.29345703 C-189.51802879 318.93802292 -189.51802879 318.93802292 -189.51026917 317.5552063 C-189.04825394 314.49099998 -187.75735592 312.60096772 -186.125 310 C-186.89815483 307.25100504 -188.36488646 305.70922853 -190.1875 303.5 C-194.61027623 297.79319196 -193.82147221 289.88674897 -193.125 283 C-192.18322769 277.22613519 -191.04339424 271.49076587 -189.81591797 265.77124023 C-187.86178403 256.26354782 -187.15016058 248.0146274 -192.34765625 239.47265625 C-194.99184511 235.79403746 -197.92154351 232.37394475 -200.88623047 228.95361328 C-216.96782934 210.3954156 -216.96782934 210.3954156 -216.5859375 197.42578125 C-215.02088164 185.79396779 -206.31898348 176.75691166 -199.125 168 C-191.65915633 158.75359948 -186.66401549 150.70909606 -187.80322266 138.39160156 C-188.65363042 132.07096842 -190.02222229 125.80623016 -191.43310547 119.58984375 C-193.24526716 111.19667382 -194.33376143 102.58742758 -190.5 94.625 C-184.94880831 88.48947234 -179.78841438 85.00435294 -171.9375 82.375 C-170.68283936 81.93136108 -170.68283936 81.93136108 -169.40283203 81.47875977 C-164.79852575 79.86214654 -160.16075375 78.38311345 -155.5 76.9375 C-145.82782946 73.7224489 -140.07420386 68.85193426 -135.125 60 C-133.42307937 56.08748036 -132.01105659 52.09628008 -130.625 48.0625 C-127.06306134 37.73548737 -123.43339429 27.4124494 -114.125 21 C-103.72594361 17.53364787 -92.23446164 20.55797619 -81.97924805 23.13330078 C-69.51129378 26.37436645 -69.51129378 26.37436645 -57.125 24 C-54.70159527 22.52020977 -52.58832869 20.78529747 -50.4375 18.9375 C-49.22239795 17.94114264 -48.0048952 16.94770671 -46.78515625 15.95703125 C-45.8727417 15.21187256 -45.8727417 15.21187256 -44.94189453 14.45166016 C-32.59279094 4.58498857 -16.31684126 -7.70589334 0 0 Z M-102.125 80 C-102.64255859 80.41894531 -103.16011719 80.83789062 -103.69335938 81.26953125 C-135.23488983 106.93169084 -155.58470269 142.28414976 -160.125 183 C-160.40939637 188.06631823 -160.45921399 193.11397921 -160.4375 198.1875 C-160.43567719 198.86564758 -160.43385437 199.54379517 -160.43197632 200.24249268 C-160.38307361 211.08041517 -159.7635917 221.46880132 -157.125 232 C-156.95339355 232.69657715 -156.78178711 233.3931543 -156.60498047 234.11083984 C-150.636156 257.60741873 -139.95601337 278.61559737 -124.125 297 C-123.41102051 297.8758374 -122.69704102 298.7516748 -121.96142578 299.65405273 C-118.36789272 302.62618728 -115.65367342 302.64840554 -111.19921875 302.48828125 C-110.45162796 302.48120651 -109.70403717 302.47413177 -108.93379211 302.46684265 C-106.55898598 302.43897645 -104.18658649 302.37626132 -101.8125 302.3125 C-100.19729982 302.28740668 -98.58206246 302.26459531 -96.96679688 302.24414062 C-93.01861181 302.18917647 -89.07221311 302.10296527 -85.125 302 C-85.8787793 301.40324463 -86.63255859 300.80648926 -87.40917969 300.19165039 C-114.34709857 278.45291452 -132.99694251 248.69570704 -137.125 214 C-137.41234776 209.10037856 -137.45940161 204.21971173 -137.4375 199.3125 C-137.43534485 198.65358765 -137.4331897 197.99467529 -137.43096924 197.3157959 C-137.25270267 163.28027621 -124.57043868 133.50511953 -101.125 109 C-100.55394531 108.37738281 -99.98289063 107.75476563 -99.39453125 107.11328125 C-79.98619787 86.59853456 -48.68930714 73.49421659 -20.75390625 72.6640625 C-18.0636004 72.6338679 -15.37754272 72.61716262 -12.6875 72.625 C-11.98423584 72.62554382 -11.28097168 72.62608765 -10.55639648 72.62664795 C23.36148461 72.74689001 53.3711817 85.57091058 77.875 109 C78.54789063 109.60972656 79.22078125 110.21945313 79.9140625 110.84765625 C101.6111152 131.20485111 114.13248751 163.25504389 115.078125 192.671875 C115.6618548 229.97184221 103.54451416 262.65906181 77.4375 289.6875 C73.808152 293.22269039 69.8232204 296.30524863 65.81640625 299.3984375 C65.17574219 299.92695313 64.53507813 300.45546875 63.875 301 C63.875 301.33 63.875 301.66 63.875 302 C83.27584688 304.4714039 83.27584688 304.4714039 101.1640625 299.6328125 C103.64771365 297.04600519 105.33257064 294.09333332 106.90185547 290.88525391 C107.89306735 288.96499848 109.01885766 287.33101247 110.31640625 285.60546875 C132.81513982 255.42528863 141.17157687 216.68998222 137.125 179.6875 C131.18373803 139.56363494 111.39135587 103.35182954 78.78515625 78.66015625 C25.44492558 40.83708359 -49.88584564 37.45793418 -102.125 80 Z M-18.125 127 C-20.10919253 130.53282187 -21.87154263 134.16069172 -23.625 137.8125 C-33.49206646 158.11322917 -33.49206646 158.11322917 -37.875 161.8125 C-38.46796875 162.33457031 -39.0609375 162.85664063 -39.671875 163.39453125 C-47.16331381 168.2973678 -54.72272574 169.90593413 -63.5 171.125 C-67.70914502 171.74459434 -71.91761529 172.36855996 -76.125 173 C-77.14754883 173.15049805 -78.17009766 173.30099609 -79.22363281 173.45605469 C-80.19397461 173.61235352 -81.16431641 173.76865234 -82.1640625 173.9296875 C-83.02467285 174.06358887 -83.8852832 174.19749023 -84.77197266 174.33544922 C-87.47654675 175.09928515 -89.06642453 176.09803636 -91.125 178 C-92.04619564 180.78106497 -92.04619564 180.78106497 -91.125 184 C-89.09280677 186.96540582 -86.6524431 189.45337327 -84.125 192 C-83.15240234 193.01126953 -83.15240234 193.01126953 -82.16015625 194.04296875 C-78.90982628 197.37053429 -75.58475669 200.47410114 -72 203.4375 C-64.48582501 209.93305402 -60.23310436 218.36663026 -58.125 228 C-57.57979945 237.39275333 -59.66922837 246.32892407 -61.43554688 255.515625 C-61.66435547 256.76085937 -61.89316406 258.00609375 -62.12890625 259.2890625 C-62.34361572 260.41006348 -62.5583252 261.53106445 -62.77954102 262.68603516 C-63.1624555 266.35930808 -62.89820588 269.39353703 -62.125 273 C-60.21800691 275.32517568 -60.21800691 275.32517568 -56.95556641 275.34155273 C-52.62886447 274.95576204 -49.56416979 273.59993159 -45.8359375 271.53515625 C-45.16962311 271.1823912 -44.50330872 270.82962616 -43.81680298 270.46617126 C-41.70369175 269.34504896 -39.60152623 268.2051687 -37.5 267.0625 C-35.38998387 265.92628186 -33.27788571 264.79436612 -31.16177368 263.66954041 C-29.85008114 262.97120574 -28.54205234 262.26593143 -27.2383728 261.55274963 C-21.71021083 258.59053899 -17.14499529 257.84073075 -10.9375 257.75 C-9.36935547 257.71132813 -9.36935547 257.71132813 -7.76953125 257.671875 C1.6677393 258.5215328 9.52123863 262.61236027 17.75 267.0625 C19.76821208 268.13675086 21.78644057 269.21097088 23.8046875 270.28515625 C24.68366699 270.75832275 25.56264648 271.23148926 26.46826172 271.71899414 C27.65959717 272.35309204 27.65959717 272.35309204 28.875 273 C29.57641113 273.37954834 30.27782227 273.75909668 31.00048828 274.15014648 C33.74539422 275.39461348 35.90512317 275.31594434 38.875 275 C40.91382095 274.12870693 40.91382095 274.12870693 41.875 272 C42.26326875 265.2441237 41.10772673 259.00018827 39.875 252.375 C37.15647312 236.83398973 35.86364507 223.7447349 44.875 210 C46.68563436 207.87388808 48.66617952 205.97048476 50.69921875 204.05859375 C51.82120296 202.96964767 52.94294057 201.88044746 54.06445312 200.79101562 C55.81806681 199.10586207 57.57557785 197.42506589 59.33813477 195.74926758 C61.05272783 194.11327094 62.75147998 192.46204846 64.44921875 190.80859375 C64.97835373 190.31467636 65.50748871 189.82075897 66.05265808 189.31187439 C69.39722037 186.03633055 70.58970676 183.67595187 70.875 179 C66.84496833 175.16091378 63.22931514 174.17006417 57.86328125 173.47265625 C56.71088203 173.29916908 56.71088203 173.29916908 55.53520203 173.12217712 C52.2719628 172.63110022 49.00399178 172.17623813 45.7355957 171.72094727 C33.52635726 169.99184716 22.99422668 167.96928424 13.875 159 C11.85546875 156.1171875 11.85546875 156.1171875 10.0625 152.875 C9.73338623 152.28533447 9.40427246 151.69566895 9.06518555 151.08813477 C5.7605484 145.04654246 2.88195013 138.78632792 0.1081543 132.48583984 C-2.01542535 127.79935305 -4.08408407 124.35971406 -8.125 121 C-13.34465256 119.56459555 -15.40771237 123.05828551 -18.125 127 Z M-169.125 314 C-169.125 342.71 -169.125 371.42 -169.125 401 C-165.62873403 402.16542199 -162.45580035 402.18072791 -158.81640625 402.203125 C-157.73346535 402.21167511 -157.73346535 402.21167511 -156.62864685 402.22039795 C-155.09627746 402.22984435 -153.5638878 402.23638051 -152.03149414 402.24023438 C-149.72699416 402.24983546 -147.42342733 402.28081575 -145.11914062 402.3125 C-133.20361145 402.39792176 -119.83995218 401.7308125 -110.41015625 393.50390625 C-105.47591306 388.28012312 -103.49371726 382.50281397 -102.75 375.4375 C-103.53789941 368.21508875 -105.87508336 363.45607887 -111.20703125 358.4765625 C-114.02570825 356.30658306 -116.77235207 355.16316357 -120.125 354 C-119.52171875 353.57589844 -118.9184375 353.15179688 -118.296875 352.71484375 C-112.07364235 348.14779398 -108.66008927 344.60526782 -106.1875 337.1875 C-106.07683001 331.54333065 -107.21334159 326.46318822 -110.72265625 321.94140625 C-125.48996481 307.84120403 -150.59832298 311.35333185 -169.125 314 Z M-74.125 313 C-79.27750363 328.20533809 -84.1027551 343.48443143 -88.75146484 358.85083008 C-89.88333718 362.59004242 -91.02148133 366.32730741 -92.16015625 370.06445312 C-92.89360205 372.48165772 -93.62668794 374.89897156 -94.359375 377.31640625 C-94.69378601 378.41352432 -95.02819702 379.5106424 -95.3727417 380.64100647 C-97.50714877 387.71558773 -99.38098844 394.81891456 -101.125 402 C-94.525 402 -87.925 402 -81.125 402 C-80.12180606 398.54256374 -79.12230869 395.08413374 -78.125 391.625 C-77.83882812 390.64015625 -77.55265625 389.6553125 -77.2578125 388.640625 C-76.98710937 387.69960938 -76.71640625 386.75859375 -76.4375 385.7890625 C-76.18613281 384.91975098 -75.93476563 384.05043945 -75.67578125 383.15478516 C-75.04245122 381.04772711 -75.04245122 381.04772711 -75.125 379 C-66.215 379 -57.305 379 -48.125 379 C-47.465 381.97 -46.805 384.94 -46.125 388 C-45.43879265 390.52694604 -44.73223171 393.04850447 -44 395.5625 C-43.071875 398.7490625 -43.071875 398.7490625 -42.125 402 C-35.195 402 -28.265 402 -21.125 402 C-22.35004143 396.48731358 -23.53581374 391.36496281 -25.21630859 386.03417969 C-25.41500046 385.40025803 -25.61369232 384.76633636 -25.81840515 384.11320496 C-26.46655497 382.04829971 -27.11995809 379.9850991 -27.7734375 377.921875 C-28.23216195 376.46383178 -28.69053961 375.00567941 -29.14859009 373.54742432 C-30.35042626 369.72427807 -31.55667899 365.90254014 -32.76397705 362.08111572 C-34.21990012 357.46994816 -35.67063731 352.85714713 -37.12214088 348.24458694 C-38.25391818 344.64838873 -39.38641047 341.05242172 -40.52133179 337.45721436 C-43.09048959 329.31510304 -45.62352566 321.16316144 -48.125 313 C-56.705 313 -65.285 313 -74.125 313 Z M-7.125 320 C-12.34407345 325.26099372 -15.08881545 330.88547898 -15.5 338.3125 C-15.2884591 345.30510192 -12.72230042 350.84429875 -7.6875 355.6875 C-2.4176114 359.93078693 3.71651475 362.32331891 9.875 365 C12.13343565 366.06563574 14.38399788 367.14817396 16.625 368.25 C17.60984375 368.72953125 18.5946875 369.2090625 19.609375 369.703125 C21.875 371 21.875 371 22.875 373 C23.45501036 380.19212843 23.45501036 380.19212843 21.125 383.4375 C16.04156992 386.96765978 9.83182498 386.44431438 3.875 386 C-0.18945727 385.20275989 -4.14544525 384.14123933 -8.125 383 C-9.45688704 382.66093392 -10.78964903 382.32515638 -12.125 382 C-13.88234451 386.97361654 -15.45084613 391.7415998 -16.125 397 C-14.73221983 397.65239158 -13.33560788 398.29660552 -11.9375 398.9375 C-11.16019531 399.29714844 -10.38289062 399.65679687 -9.58203125 400.02734375 C1.21525946 404.30162894 17.73987706 403.71037148 28.359375 399.38671875 C35.14771148 395.64470097 40.54396766 390.78951768 43.28125 383.4140625 C45.14083666 375.85337464 44.53373823 369.20344245 40.58666992 362.43286133 C35.37219363 355.02132856 27.18857339 351.45372151 19 348.25 C17.14576682 347.51188238 15.29407194 346.76734759 13.4453125 346.015625 C12.23512451 345.54044434 12.23512451 345.54044434 11.00048828 345.05566406 C8.78728533 343.95643484 7.44784025 342.89421312 5.875 341 C5.26614658 338.27935767 5.34980633 335.73443225 5.875 333 C8.57839587 330.11016304 11.46494565 329.11315251 15.40625 328.796875 C22.71424223 328.68148565 28.94070295 329.70676791 35.875 332 C36.54684618 329.89748139 37.21230968 327.79292237 37.875 325.6875 C38.24625 324.51574219 38.6175 323.34398437 39 322.13671875 C40.00934772 319.06113324 40.00934772 319.06113324 39.875 316 C24.33361897 310.42194225 6.63962248 309.75551048 -7.125 320 Z M52.875 313 C52.875 342.37 52.875 371.74 52.875 402 C59.475 402 66.075 402 72.875 402 C72.875 372.63 72.875 343.26 72.875 313 C66.275 313 59.675 313 52.875 313 Z M97.875 323 C97.04226563 323.61488281 96.20953125 324.22976563 95.3515625 324.86328125 C87.38688494 331.7350141 82.90821615 342.66783851 81.875 353 C80.94831163 366.62909974 84.0094405 378.16279264 92.3984375 388.9609375 C98.97466697 396.307067 109.71100325 401.4500941 119.51806641 402.20288086 C122.57731992 402.30478821 125.62662999 402.32197638 128.6875 402.3125 C129.71681641 402.32861328 130.74613281 402.34472656 131.80664062 402.36132812 C138.65225065 402.36565805 144.4472152 401.35789524 150.875 399 C150.59348084 396.87363187 150.29946737 394.74891472 150 392.625 C149.83757812 391.44164062 149.67515625 390.25828125 149.5078125 389.0390625 C149.1447415 385.90433341 149.1447415 385.90433341 146.875 384 C144.45736342 384.20635771 144.45736342 384.20635771 141.75 384.875 C132.24567512 386.78081515 123.11824196 386.73522902 114.5625 381.6875 C108.82451323 377.77109633 105.26025182 372.87642988 103.875 366 C103.0241131 355.64583413 102.61125356 345.36743521 109.5703125 336.94921875 C115.96187433 330.69997915 123.11237804 328.88971435 131.875 328.6875 C137.39894144 328.82345193 142.50339493 329.73609293 147.875 331 C149.195 325.72 150.515 320.44 151.875 315 C133.40979652 310.25071927 113.29603027 310.9523201 97.875 323 Z " fill="#000000" transform="translate(267.125,2)"/>
<path d="M0 0 C2.0715116 -0.03222896 4.14316902 -0.05517051 6.21484375 -0.07421875 C7.36847412 -0.08799561 8.52210449 -0.10177246 9.71069336 -0.1159668 C15.28759329 0.08065069 19.08447325 1.4675786 23.5 5 C25.80971078 9.61942155 25.85279993 13.94411469 25 19 C22.13288951 23.43939688 18.40584712 25.04103371 13.48828125 26.50390625 C9.3449085 27.329979 5.20113608 27.43345055 1 27 C0 26 0 26 -0.11352539 23.49975586 C-0.10828857 22.41573486 -0.10305176 21.33171387 -0.09765625 20.21484375 C-0.09443359 19.04501953 -0.09121094 17.87519531 -0.08789062 16.66992188 C-0.07951172 15.43822266 -0.07113281 14.20652344 -0.0625 12.9375 C-0.05798828 11.70193359 -0.05347656 10.46636719 -0.04882812 9.19335938 C-0.03699608 6.12885883 -0.02051173 3.06445279 0 0 Z " fill="#000000" transform="translate(118,364)"/>
<path d="M0 0 C3.76534826 1.58144627 5.17329238 2.72135798 7.125 6.3125 C7.96841332 10.60782144 7.66272196 13.42909963 5.375 17.1875 C0.95926514 21.35791626 -2.70775967 21.58179179 -8.625 21.4375 C-11.0175 21.39625 -13.41 21.355 -15.875 21.3125 C-15.875 14.3825 -15.875 7.4525 -15.875 0.3125 C-11.21557312 -2.01721344 -4.95405881 -0.87894592 0 0 Z " fill="#000000" transform="translate(133.875,328.6875)"/>
<path d="M0 0 C0.66 0 1.32 0 2 0 C5.3 11.88 8.6 23.76 12 36 C5.07 36 -1.86 36 -9 36 C-6 24 -3 12 0 0 Z " fill="#000000" transform="translate(204,330)"/>
</svg>
