<?xml version="1.0" encoding="UTF-8"?>
<svg version="1.1" xmlns="http://www.w3.org/2000/svg" width="512" height="512">
<path d="M0 0 C5.42499881 3.07905338 10.09846237 7.01725114 14.875 11 C29.11021638 22.68136266 29.11021638 22.68136266 46.875 25 C52.99986154 23.96170629 59.03520009 22.52308389 65.08789062 21.1328125 C84.87334878 16.77066425 84.87334878 16.77066425 93.10546875 21.6328125 C102.38940764 28.80583372 105.77243648 41.66594646 109.375 52.3125 C112.98123058 62.50352503 117.34087955 68.76767194 126.875 74 C131.15788794 75.77427046 135.52359549 77.21335721 139.9375 78.625 C163.1877553 86.19423508 163.1877553 86.19423508 168.875 97 C171.94360108 106.20580325 169.2761719 116.59952373 167.375 125.8125 C164.88746407 138.06865677 162.88247293 148.09994759 169.9140625 159.2265625 C172.47017308 162.89072265 175.16353148 166.4500378 177.875 170 C195.11832932 192.61420238 195.11832932 192.61420238 194.40625 202.63671875 C192.2099292 212.40711643 185.94106356 219.72621151 179.49609375 227.02734375 C170.52854826 237.19768968 165.03474787 246.14441392 165.875 260 C166.52994887 264.37354284 167.43682878 268.6793412 168.375 273 C173.1206711 294.85573932 173.1206711 294.85573932 168.18359375 303.2265625 C162.14363221 311.41206261 152.64445741 315.15319641 142.875 317 C143.88142894 324.83218869 146.44821343 330.48673962 150.625 337.125 C151.81086325 339.06972291 152.99572495 341.01505684 154.1796875 342.9609375 C154.79166992 343.95706055 155.40365234 344.95318359 156.03417969 345.97949219 C159.00980996 350.86205156 161.87865702 355.80563378 164.75 360.75 C165.32927246 361.74362549 165.90854492 362.73725098 166.50537109 363.76098633 C170.77983691 371.09644917 175.01679521 378.45317659 179.25 385.8125 C185.24761472 396.23891622 191.34742456 406.6010075 197.50927734 416.9309082 C199.30678054 419.94878751 201.09495819 422.97179308 202.875 426 C203.38562988 426.8657666 203.89625977 427.7315332 204.42236328 428.62353516 C204.87595215 429.41163574 205.32954102 430.19973633 205.796875 431.01171875 C206.38227051 432.02238403 206.38227051 432.02238403 206.97949219 433.0534668 C208.63775966 436.65798331 208.52863542 439.0781875 207.875 443 C205.34046343 446.21954645 203.76202695 447.70432435 199.875 449 C196.91287101 449.21200128 193.96594668 449.37584278 191 449.5 C190.12029541 449.54060547 189.24059082 449.58121094 188.33422852 449.62304688 C185.51465196 449.75273991 182.69486674 449.87679026 179.875 450 C152.9624884 449.94961676 152.9624884 449.94961676 129.875 462 C127.15878886 465.41609377 124.86081043 469.04363014 122.5625 472.75 C121.91877441 473.76118896 121.27504883 474.77237793 120.61181641 475.81420898 C116.12661447 482.89045274 111.7261623 490.02635214 107.46362305 497.23925781 C101.1279854 507.85141921 101.1279854 507.85141921 96.8828125 510.015625 C93.98483091 510.3763696 91.74282286 510.49230251 89.1496582 509.02124023 C83.98403999 504.66785001 81.07749974 499.7356238 77.9375 493.8125 C76.80229786 491.73803837 75.66415197 489.66518559 74.5234375 487.59375 C73.93014648 486.51222656 73.33685547 485.43070312 72.72558594 484.31640625 C69.61815695 478.74763113 66.3368346 473.28423787 63.0625 467.8125 C56.67300339 457.0999896 50.43354149 446.31062282 44.27807617 435.4621582 C40.92296889 429.55422348 37.51737661 423.697399 33.92822266 417.92797852 C32.875 416 32.875 416 32.875 414 C21.77433753 413.57261695 10.67854531 413.27799636 -0.42980385 413.1476593 C-5.5902988 413.08304389 -10.74174601 412.97469423 -15.8984375 412.76220703 C-37.48260966 410.89516249 -37.48260966 410.89516249 -57.29360962 417.24713135 C-62.2350892 422.81611301 -64.85994595 429.10703628 -67.14697266 436.12463379 C-68.41421034 439.8502683 -70.14777245 442.79536431 -72.24609375 446.1171875 C-73.35208095 448.03615962 -74.45756367 449.9554226 -75.5625 451.875 C-76.47745239 453.46127197 -76.47745239 453.46127197 -77.41088867 455.07958984 C-80.63373073 460.66815703 -83.84865955 466.26114474 -87.0546875 471.859375 C-98.23282321 491.35687034 -98.23282321 491.35687034 -103.8125 500.4375 C-104.19833252 501.07574707 -104.58416504 501.71399414 -104.98168945 502.37158203 C-106.99395767 505.59390919 -108.80448728 508.08938752 -112.125 510 C-117.04583851 510.88736432 -117.04583851 510.88736432 -120.125 510 C-126.29105888 504.83210209 -130.3225217 497.22224831 -134.4375 490.4375 C-135.7565515 488.30260579 -137.07686423 486.16849032 -138.3984375 484.03515625 C-139.03491211 483.00406738 -139.67138672 481.97297852 -140.32714844 480.91064453 C-148.16059548 468.22862992 -154.42808445 458.14523973 -169.125 453 C-172.41332847 452.25167508 -175.52784413 451.85228203 -178.89599609 451.75048828 C-179.81399994 451.72020538 -180.73200378 451.68992249 -181.67782593 451.65872192 C-182.65812775 451.62954681 -183.63842957 451.6003717 -184.6484375 451.5703125 C-186.74220765 451.49666437 -188.83595715 451.42242733 -190.9296875 451.34765625 C-194.2166575 451.2342278 -197.50357793 451.12489224 -200.79101562 451.02587891 C-203.9732125 450.92804592 -207.15442008 450.81297221 -210.3359375 450.6953125 C-211.31219086 450.67018585 -212.28844421 450.6450592 -213.29428101 450.61917114 C-218.93067004 450.39606395 -223.16399802 449.76413928 -228.125 447 C-230.66469564 443.19045653 -230.96858971 440.39643439 -230.125 436 C-228.3414531 431.81760506 -226.06879727 427.96804596 -223.75 424.0625 C-223.10804688 422.95076416 -222.46609375 421.83902832 -221.8046875 420.69360352 C-219.92802394 417.45237097 -218.02953948 414.22490912 -216.125 411 C-215.23599887 409.47713434 -214.34784337 407.95377437 -213.4609375 406.4296875 C-211.89431795 403.74645203 -210.31670197 401.07012249 -208.73046875 398.3984375 C-205.60675581 393.13501164 -202.52151329 387.84925828 -199.4375 382.5625 C-198.85000977 381.55558105 -198.26251953 380.54866211 -197.65722656 379.51123047 C-192.56749355 370.77792981 -187.50295121 362.02995525 -182.48339844 353.25610352 C-179.71674742 348.43055793 -176.92880639 343.63615188 -173.95703125 338.93359375 C-167.51006191 328.80026829 -167.51006191 328.80026829 -167.125 317 C-168.10339844 316.6596875 -169.08179688 316.319375 -170.08984375 315.96875 C-178.16320948 313.03485366 -185.70445101 310.03765787 -191.125 303 C-196.09247153 291.04903764 -192.41519198 277.88680516 -189.81616211 265.77075195 C-187.86115243 256.2635131 -187.15040103 248.01423222 -192.34765625 239.47265625 C-194.99184511 235.79403746 -197.92154351 232.37394475 -200.88623047 228.95361328 C-216.96782934 210.3954156 -216.96782934 210.3954156 -216.5859375 197.42578125 C-215.02088164 185.79396779 -206.31898348 176.75691166 -199.125 168 C-191.65915633 158.75359948 -186.66401549 150.70909606 -187.80322266 138.39160156 C-188.65363042 132.07096842 -190.02222229 125.80623016 -191.43310547 119.58984375 C-193.24526716 111.19667382 -194.33376143 102.58742758 -190.5 94.625 C-184.94880831 88.48947234 -179.78841438 85.00435294 -171.9375 82.375 C-170.68283936 81.93136108 -170.68283936 81.93136108 -169.40283203 81.47875977 C-164.79852575 79.86214654 -160.16075375 78.38311345 -155.5 76.9375 C-145.82782946 73.7224489 -140.07420386 68.85193426 -135.125 60 C-133.42307937 56.08748036 -132.01105659 52.09628008 -130.625 48.0625 C-127.06306134 37.73548737 -123.43339429 27.4124494 -114.125 21 C-103.72594361 17.53364787 -92.23446164 20.55797619 -81.97924805 23.13330078 C-69.51129378 26.37436645 -69.51129378 26.37436645 -57.125 24 C-54.70159527 22.52020977 -52.58832869 20.78529747 -50.4375 18.9375 C-49.22239795 17.94114264 -48.0048952 16.94770671 -46.78515625 15.95703125 C-45.8727417 15.21187256 -45.8727417 15.21187256 -44.94189453 14.45166016 C-32.59279094 4.58498857 -16.31684126 -7.70589334 0 0 Z M-102.125 80 C-102.64255859 80.41894531 -103.16011719 80.83789062 -103.69335938 81.26953125 C-135.23488983 106.93169084 -155.58470269 142.28414976 -160.125 183 C-160.40939637 188.06631823 -160.45921399 193.11397921 -160.4375 198.1875 C-160.43567719 198.86564758 -160.43385437 199.54379517 -160.43197632 200.24249268 C-160.38307361 211.08041517 -159.7635917 221.46880132 -157.125 232 C-156.95339355 232.69657715 -156.78178711 233.3931543 -156.60498047 234.11083984 C-150.636156 257.60741873 -139.95601337 278.61559737 -124.125 297 C-123.41102051 297.8758374 -122.69704102 298.7516748 -121.96142578 299.65405273 C-118.36789272 302.62618728 -115.65367342 302.64840554 -111.19921875 302.48828125 C-110.45162796 302.48120651 -109.70403717 302.47413177 -108.93379211 302.46684265 C-106.55898598 302.43897645 -104.18658649 302.37626132 -101.8125 302.3125 C-100.19729982 302.28740668 -98.58206246 302.26459531 -96.96679688 302.24414062 C-93.01861181 302.18917647 -89.07221311 302.10296527 -85.125 302 C-85.8787793 301.40324463 -86.63255859 300.80648926 -87.40917969 300.19165039 C-114.34709857 278.45291452 -132.99694251 248.69570704 -137.125 214 C-137.41234776 209.10037856 -137.45940161 204.21971173 -137.4375 199.3125 C-137.43534485 198.65358765 -137.4331897 197.99467529 -137.43096924 197.3157959 C-137.25270267 163.28027621 -124.57043868 133.50511953 -101.125 109 C-100.55394531 108.37738281 -99.98289063 107.75476563 -99.39453125 107.11328125 C-79.98619787 86.59853456 -48.68930714 73.49421659 -20.75390625 72.6640625 C-18.0636004 72.6338679 -15.37754272 72.61716262 -12.6875 72.625 C-11.98423584 72.62554382 -11.28097168 72.62608765 -10.55639648 72.62664795 C23.36148461 72.74689001 53.3711817 85.57091058 77.875 109 C78.54789063 109.60972656 79.22078125 110.21945313 79.9140625 110.84765625 C101.6111152 131.20485111 114.13248751 163.25504389 115.078125 192.671875 C115.6618548 229.97184221 103.54451416 262.65906181 77.4375 289.6875 C73.808152 293.22269039 69.8232204 296.30524863 65.81640625 299.3984375 C65.17574219 299.92695313 64.53507813 300.45546875 63.875 301 C63.875 301.33 63.875 301.66 63.875 302 C83.27584688 304.4714039 83.27584688 304.4714039 101.1640625 299.6328125 C103.64771365 297.04600519 105.33257064 294.09333332 106.90185547 290.88525391 C107.89306735 288.96499848 109.01885766 287.33101247 110.31640625 285.60546875 C132.81513982 255.42528863 141.17157687 216.68998222 137.125 179.6875 C131.18373803 139.56363494 111.39135587 103.35182954 78.78515625 78.66015625 C25.44492558 40.83708359 -49.88584564 37.45793418 -102.125 80 Z M-80.125 142 C-81.58116613 143.8310299 -83.05709779 145.64673076 -84.5625 147.4375 C-85.2740625 148.324375 -85.985625 149.21125 -86.71875 150.125 C-90.03803538 154.09089942 -93.5646073 157.85057851 -97.14038086 161.58569336 C-99.63706811 164.22728315 -101.75810509 166.60322522 -103.125 170 C-102.50753906 170.66644531 -101.89007813 171.33289063 -101.25390625 172.01953125 C-96.15880226 177.56443133 -91.26569175 183.19888856 -86.53125 189.05859375 C-83.81914351 192.37387977 -81.0439422 195.62869677 -78.25 198.875 C-72.96229591 205.02010166 -67.71387908 211.19685874 -62.48388672 217.39111328 C-60.19953814 220.09572289 -57.91210492 222.79772127 -55.625 225.5 C-54.70831874 226.58332099 -53.79165207 227.66665432 -52.875 228.75 C-52.42125 229.28625 -51.9675 229.8225 -51.5 230.375 C-47.375 235.25 -47.375 235.25 -46.00024414 236.87475586 C-45.08282203 237.95895238 -44.16534148 239.04309945 -43.24780273 240.12719727 C-40.96721456 242.82192311 -38.68762185 245.51747812 -36.41015625 248.21484375 C-31.05750563 254.55179055 -25.68119481 260.86744546 -20.27172852 267.15600586 C-17.18895772 270.7432975 -14.14493049 274.35961107 -11.125 278 C-6.34730505 274.11427058 -2.18863068 270.04084435 1.75 265.3125 C2.52742554 264.39295532 2.52742554 264.39295532 3.32055664 263.45483398 C7.08907979 258.98367524 10.78030656 254.45062949 14.46484375 249.91015625 C17.93021128 245.72587941 21.50744929 241.64172589 25.07788086 237.54711914 C28.23965838 233.91262149 31.34350206 230.24479157 34.375 226.5 C38.45321716 221.46571728 42.68117058 216.57489292 46.93530273 211.68969727 C50.92080258 207.1104026 54.86131035 202.49631281 58.77197266 197.85302734 C61.15972067 195.02023856 63.55967884 192.19916893 65.98046875 189.39453125 C71.45231411 183.05456878 76.8414333 176.69960639 81.875 170 C80.37493609 166.55220914 78.37090738 164.17639467 75.8125 161.4375 C72.60208915 157.94081047 69.53043761 154.39200607 66.5625 150.6875 C62.50809653 145.66434526 58.20007427 140.93126111 53.7722168 136.23901367 C49.97292555 132.1958511 49.97292555 132.1958511 48.875 130 C33.68032174 129.71893649 18.48576363 129.50770997 3.28906536 129.37825394 C-3.7682191 129.31652941 -10.82388316 129.23247951 -17.88012695 129.09472656 C-24.69486411 128.96175245 -31.50792028 128.89251553 -38.32387352 128.86147308 C-40.91913475 128.83936323 -43.51430778 128.7961843 -46.10885048 128.73123932 C-66.62020259 128.11755408 -66.62020259 128.11755408 -80.125 142 Z M-153.125 313 C-153.125 342.37 -153.125 371.74 -153.125 402 C-134.645 402 -116.165 402 -97.125 402 C-97.125 396.72 -97.125 391.44 -97.125 386 C-109.005 386 -120.885 386 -133.125 386 C-133.125 378.74 -133.125 371.48 -133.125 364 C-122.565 364 -112.005 364 -101.125 364 C-101.125 358.72 -101.125 353.44 -101.125 348 C-111.685 348 -122.245 348 -133.125 348 C-133.125 341.73 -133.125 335.46 -133.125 329 C-121.905 329 -110.685 329 -99.125 329 C-99.125 323.72 -99.125 318.44 -99.125 313 C-116.945 313 -134.765 313 -153.125 313 Z M-87.125 313 C-87.125 342.37 -87.125 371.74 -87.125 402 C-68.975 402 -50.825 402 -32.125 402 C-32.125 396.39 -32.125 390.78 -32.125 385 C-43.675 385 -55.225 385 -67.125 385 C-67.125 361.24 -67.125 337.48 -67.125 313 C-73.725 313 -80.325 313 -87.125 313 Z M-25.125 313 C-25.125 342.37 -25.125 371.74 -25.125 402 C-18.525 402 -11.925 402 -5.125 402 C-5.125 372.63 -5.125 343.26 -5.125 313 C-11.725 313 -18.325 313 -25.125 313 Z M0.875 313 C0.875 318.61 0.875 324.22 0.875 330 C8.795 330 16.715 330 24.875 330 C24.875 353.76 24.875 377.52 24.875 402 C31.475 402 38.075 402 44.875 402 C44.875 378.24 44.875 354.48 44.875 330 C52.795 330 60.715 330 68.875 330 C68.875 324.39 68.875 318.78 68.875 313 C46.435 313 23.995 313 0.875 313 Z M74.875 313 C74.875 342.37 74.875 371.74 74.875 402 C93.355 402 111.835 402 130.875 402 C130.875 396.72 130.875 391.44 130.875 386 C118.995 386 107.115 386 94.875 386 C94.875 378.74 94.875 371.48 94.875 364 C105.435 364 115.995 364 126.875 364 C126.875 358.72 126.875 353.44 126.875 348 C116.315 348 105.755 348 94.875 348 C94.875 341.73 94.875 335.46 94.875 329 C106.095 329 117.315 329 128.875 329 C128.875 323.72 128.875 318.44 128.875 313 C111.055 313 93.235 313 74.875 313 Z " fill="#000000" transform="translate(267.125,2)"/>
</svg>
